<?xml version="1.0" encoding="UTF-8"?>
<svg xmlns="http://www.w3.org/2000/svg" xmlns:xlink="http://www.w3.org/1999/xlink" width="854" height="480" viewBox="0 0 854 480">
<defs>
<g>
<g id="glyph-0-0">
<path d="M 8.273438 -5.203125 L 1.640625 -5.203125 L 1.640625 -6.183594 L 8.273438 -6.183594 L 8.273438 -5.203125 M 8.273438 -2.195312 L 1.640625 -2.195312 L 1.640625 -3.175781 L 8.273438 -3.175781 Z "/>
</g>
<g id="glyph-0-1">
</g>
<g id="glyph-0-2">
<path d="M 0.703125 -10.214844 L 3.75 -10.214844 L 3.75 0.292969 L 1.589844 0.292969 L 1.589844 1.0625 L 0.703125 1.0625 L 0.703125 -10.214844 M 8.515625 -4.511719 L 10.390625 -4.511719 L 10.390625 -5.605469 L 11.277344 -5.605469 L 11.277344 -4.511719 L 12.863281 -4.511719 L 12.863281 -3.652344 L 11.277344 -3.652344 L 11.277344 -1.648438 L 13.046875 -1.648438 L 13.046875 -0.789062 L 11.277344 -0.789062 L 11.277344 1.699219 L 10.390625 1.699219 L 10.390625 -0.789062 L 8.175781 -0.789062 L 8.175781 -1.632812 L 8.761719 -3.171875 L 9.636719 -3.171875 L 9.089844 -1.648438 L 10.390625 -1.648438 L 10.390625 -3.652344 L 8.515625 -3.652344 L 8.515625 -4.511719 M 6.417969 -5.449219 C 6.324219 -5.152344 6.226562 -4.867188 6.132812 -4.589844 L 8.058594 -4.589844 L 8.058594 -3.742188 C 7.652344 -1.285156 6.414062 0.578125 4.347656 1.855469 C 4.15625 1.613281 3.945312 1.363281 3.710938 1.113281 C 4.683594 0.550781 5.464844 -0.144531 6.054688 -0.96875 C 5.726562 -1.335938 5.355469 -1.699219 4.949219 -2.0625 C 4.78125 -1.785156 4.613281 -1.519531 4.441406 -1.269531 C 4.328125 -1.417969 4.128906 -1.636719 3.839844 -1.933594 C 4.578125 -2.957031 5.15625 -4.195312 5.574219 -5.644531 L 6.417969 -5.449219 M 4.347656 -7.039062 L 9.832031 -7.039062 C 10.257812 -7.828125 10.632812 -8.621094 10.964844 -9.421875 L 11.886719 -9.042969 C 11.496094 -8.304688 11.128906 -7.636719 10.78125 -7.039062 L 12.863281 -7.039062 L 12.863281 -5.292969 L 11.980469 -5.292969 L 11.980469 -6.179688 L 5.234375 -6.179688 L 5.234375 -5.292969 L 4.347656 -5.292969 L 4.347656 -7.039062 M 4.804688 -9.25 C 4.742188 -9.539062 4.664062 -9.832031 4.570312 -10.136719 C 7.78125 -10.285156 10.285156 -10.460938 12.082031 -10.671875 L 12.355469 -9.785156 C 10.558594 -9.628906 8.042969 -9.449219 4.804688 -9.25 M 2.863281 -0.566406 L 2.863281 -2.949219 L 1.589844 -2.949219 L 1.589844 -0.566406 L 2.863281 -0.566406 M 2.863281 -9.355469 L 1.589844 -9.355469 L 1.589844 -7 L 2.863281 -7 L 2.863281 -9.355469 M 1.589844 -3.796875 L 2.863281 -3.796875 L 2.863281 -6.152344 L 1.589844 -6.152344 L 1.589844 -3.796875 M 7.734375 -9.015625 L 8.542969 -9.316406 C 8.828125 -8.71875 9.070312 -8.132812 9.269531 -7.558594 L 8.425781 -7.234375 C 8.242188 -7.816406 8.011719 -8.410156 7.734375 -9.015625 M 5.207031 -8.742188 L 5.964844 -9.148438 C 6.300781 -8.601562 6.613281 -8.0625 6.902344 -7.53125 L 6.066406 -7.128906 C 5.859375 -7.582031 5.574219 -8.117188 5.207031 -8.742188 M 5.351562 -2.78125 C 5.707031 -2.492188 6.09375 -2.136719 6.511719 -1.710938 C 6.8125 -2.320312 7.035156 -2.992188 7.175781 -3.730469 L 5.78125 -3.730469 C 5.652344 -3.410156 5.507812 -3.09375 5.351562 -2.78125 Z "/>
</g>
<g id="glyph-0-3">
<path d="M 0.714844 -9.851562 L 5.207031 -9.851562 L 5.207031 0.761719 L 4.179688 0.761719 L 4.179688 -0.320312 L 1.746094 -0.320312 L 1.746094 0.917969 L 0.714844 0.917969 L 0.714844 -9.851562 M 5.636719 -8.210938 L 10.261719 -8.210938 L 10.261719 -11.085938 L 11.300781 -11.085938 L 11.300781 -8.210938 L 13.152344 -8.210938 L 13.152344 -7.246094 L 11.300781 -7.246094 L 11.300781 -0.242188 C 11.300781 0.921875 10.746094 1.503906 9.636719 1.503906 C 9.132812 1.503906 8.394531 1.492188 7.421875 1.464844 C 7.378906 1.152344 7.308594 0.789062 7.214844 0.371094 C 8.125 0.441406 8.835938 0.476562 9.347656 0.476562 C 9.957031 0.476562 10.261719 0.167969 10.261719 -0.449219 L 10.261719 -7.246094 L 5.636719 -7.246094 L 5.636719 -8.210938 M 1.746094 -1.28125 L 4.179688 -1.28125 L 4.179688 -4.65625 L 1.746094 -4.65625 L 1.746094 -1.28125 M 4.179688 -8.886719 L 1.746094 -8.886719 L 1.746094 -5.59375 L 4.179688 -5.59375 L 4.179688 -8.886719 M 7.097656 -5.996094 C 7.789062 -4.730469 8.316406 -3.71875 8.671875 -2.960938 C 8.445312 -2.859375 8.097656 -2.683594 7.628906 -2.441406 C 7.292969 -3.265625 6.804688 -4.292969 6.171875 -5.527344 Z "/>
</g>
<g id="glyph-0-4">
<path d="M 1.746094 -3.40625 L 1.746094 -4.304688 L 10.597656 -4.304688 L 10.597656 -3.40625 C 9.773438 -2.320312 8.78125 -1.398438 7.625 -0.644531 C 9.035156 0.03125 10.875 0.453125 13.152344 0.617188 C 12.839844 1.050781 12.585938 1.417969 12.394531 1.710938 C 10.070312 1.394531 8.144531 0.800781 6.621094 -0.0703125 C 5.152344 0.683594 3.242188 1.308594 0.886719 1.804688 C 0.667969 1.464844 0.445312 1.144531 0.222656 0.839844 C 2.492188 0.449219 4.3125 -0.0585938 5.683594 -0.683594 C 4.738281 -1.390625 3.921875 -2.296875 3.234375 -3.40625 L 1.746094 -3.40625 M 0.480469 -9.445312 L 6.417969 -9.445312 C 6.148438 -9.933594 5.902344 -10.355469 5.675781 -10.710938 L 6.613281 -11.164062 C 7.039062 -10.503906 7.335938 -10.019531 7.5 -9.707031 L 7 -9.445312 L 12.917969 -9.445312 L 12.917969 -8.523438 L 8.710938 -8.523438 L 8.710938 -4.902344 L 7.707031 -4.902344 L 7.707031 -8.523438 L 5.613281 -8.523438 L 5.613281 -4.875 L 4.609375 -4.875 L 4.609375 -8.523438 L 0.480469 -8.523438 L 0.480469 -9.445312 M 9.324219 -3.40625 L 4.40625 -3.40625 C 5.046875 -2.457031 5.796875 -1.722656 6.660156 -1.191406 C 7.703125 -1.808594 8.589844 -2.546875 9.324219 -3.40625 M 9.492188 -7.15625 L 10.207031 -7.765625 C 11.320312 -6.769531 12.230469 -5.886719 12.941406 -5.125 L 12.136719 -4.40625 C 11.292969 -5.355469 10.414062 -6.269531 9.492188 -7.15625 M 2.878906 -7.792969 L 3.660156 -7.128906 C 2.773438 -6.113281 1.902344 -5.191406 1.042969 -4.367188 C 0.824219 -4.613281 0.574219 -4.855469 0.285156 -5.097656 C 1.199219 -5.878906 2.0625 -6.777344 2.878906 -7.792969 Z "/>
</g>
<g id="glyph-0-5">
<path d="M 3.839844 -3.027344 C 4.976562 -3.558594 6.042969 -4.167969 7.03125 -4.855469 L 7.03125 -10.828125 L 8.152344 -10.828125 L 8.152344 -5.695312 C 9.480469 -6.769531 10.660156 -8.003906 11.691406 -9.40625 L 12.644531 -8.71875 C 11.378906 -7.039062 9.882812 -5.570312 8.152344 -4.308594 L 8.152344 -0.632812 C 8.152344 -0.0429688 8.464844 0.253906 9.089844 0.253906 L 10.742188 0.253906 C 11.332031 0.253906 11.675781 -0.0273438 11.769531 -0.59375 C 11.890625 -1.183594 11.96875 -1.863281 12.003906 -2.636719 C 12.371094 -2.496094 12.75 -2.371094 13.152344 -2.257812 C 13.082031 -1.53125 12.992188 -0.863281 12.878906 -0.253906 C 12.710938 0.746094 12.085938 1.242188 11.003906 1.242188 L 8.800781 1.242188 C 7.621094 1.242188 7.03125 0.660156 7.03125 -0.5 L 7.03125 -3.546875 C 6.21875 -3.027344 5.363281 -2.550781 4.464844 -2.117188 C 4.285156 -2.402344 4.074219 -2.707031 3.839844 -3.027344 M 0.183594 -4.628906 C 1.691406 -6.632812 2.804688 -8.765625 3.515625 -11.023438 L 4.648438 -10.695312 C 4.234375 -9.621094 3.789062 -8.605469 3.308594 -7.65625 L 3.308594 1.660156 L 2.214844 1.660156 L 2.214844 -5.695312 C 1.730469 -4.914062 1.21875 -4.183594 0.675781 -3.496094 C 0.53125 -3.871094 0.363281 -4.246094 0.183594 -4.628906 Z "/>
</g>
<g id="glyph-0-6">
<path d="M 5.261719 -4.1875 C 5.394531 -4.195312 6.371094 -4.246094 8.183594 -4.335938 C 7.964844 -4.640625 7.757812 -4.925781 7.550781 -5.1875 L 8.253906 -5.632812 C 8.878906 -4.9375 9.457031 -4.207031 9.988281 -3.445312 L 9.152344 -2.921875 C 9 -3.152344 8.851562 -3.375 8.703125 -3.59375 C 7.054688 -3.503906 5.691406 -3.414062 4.609375 -3.328125 C 4.417969 -3.308594 4.1875 -3.269531 3.917969 -3.210938 L 3.59375 -4.09375 C 3.855469 -4.183594 4.050781 -4.265625 4.179688 -4.34375 C 4.914062 -4.835938 5.636719 -5.414062 6.355469 -6.066406 C 5.726562 -6.042969 5.1875 -6.007812 4.738281 -5.96875 C 4.558594 -5.945312 4.359375 -5.90625 4.140625 -5.851562 L 3.75 -6.648438 C 3.96875 -6.726562 4.167969 -6.847656 4.347656 -7.011719 C 4.933594 -7.507812 5.480469 -8.105469 5.988281 -8.808594 L 0.480469 -8.808594 L 0.480469 -9.71875 L 6.316406 -9.71875 C 6.101562 -10.105469 5.902344 -10.445312 5.714844 -10.734375 L 6.652344 -11.191406 C 6.992188 -10.675781 7.285156 -10.183594 7.53125 -9.71875 L 12.863281 -9.71875 L 12.863281 -8.808594 L 6.359375 -8.808594 L 6.980469 -8.484375 C 6.277344 -7.761719 5.679688 -7.191406 5.195312 -6.765625 C 5.691406 -6.777344 6.335938 -6.792969 7.136719 -6.808594 C 7.484375 -7.15625 7.828125 -7.523438 8.175781 -7.910156 L 9.074219 -7.390625 C 7.695312 -6.078125 6.421875 -5.011719 5.261719 -4.1875 M 0.300781 -2.0625 L 6.238281 -2.0625 L 6.238281 -3.210938 L 7.265625 -3.210938 L 7.265625 -2.0625 L 13.074219 -2.0625 L 13.074219 -1.152344 L 7.265625 -1.152344 L 7.265625 1.777344 L 6.238281 1.777344 L 6.238281 -1.152344 L 0.300781 -1.152344 L 0.300781 -2.0625 M 3.582031 -5.566406 L 4.050781 -4.796875 C 3.015625 -4.191406 1.960938 -3.570312 0.886719 -2.9375 L 0.339844 -3.808594 C 1.242188 -4.234375 2.320312 -4.820312 3.582031 -5.566406 M 10.117188 -5.578125 C 11.359375 -4.875 12.328125 -4.277344 13.019531 -3.78125 L 12.449219 -2.9375 C 11.554688 -3.628906 10.597656 -4.277344 9.582031 -4.875 L 10.117188 -5.578125 M 12.488281 -7.480469 C 11.828125 -6.90625 11.109375 -6.363281 10.339844 -5.851562 L 9.675781 -6.542969 C 10.507812 -7.089844 11.199219 -7.636719 11.746094 -8.183594 L 12.488281 -7.480469 M 0.753906 -7.570312 L 1.417969 -8.210938 C 2.140625 -7.636719 2.769531 -7.09375 3.308594 -6.582031 L 2.578125 -5.867188 C 2.074219 -6.394531 1.46875 -6.964844 0.753906 -7.570312 Z "/>
</g>
</g>
</defs>
<g fill="rgb(100%, 100%, 0%)" fill-opacity="1">
<use xlink:href="#glyph-0-0" x="30" y="34.107422"/>
<use xlink:href="#glyph-0-1" x="40" y="34.107422"/>
<use xlink:href="#glyph-0-2" x="44" y="34.107422"/>
<use xlink:href="#glyph-0-3" x="57" y="34.107422"/>
<use xlink:href="#glyph-0-4" x="70" y="34.107422"/>
<use xlink:href="#glyph-0-5" x="83" y="34.107422"/>
<use xlink:href="#glyph-0-6" x="96" y="34.107422"/>
</g>
</svg>
