<?xml version="1.0" encoding="UTF-8"?>
<svg xmlns="http://www.w3.org/2000/svg" xmlns:xlink="http://www.w3.org/1999/xlink" width="854" height="480" viewBox="0 0 854 480">
<defs>
<g>
<g id="glyph-0-0">
<path d="M 3.644531 -5.304688 L 10.46875 -5.304688 C 11.171875 -5.304688 11.574219 -5.527344 11.679688 -5.96875 C 11.785156 -6.335938 11.878906 -6.816406 11.964844 -7.414062 C 12.253906 -7.285156 12.59375 -7.152344 12.996094 -7.011719 C 12.863281 -6.421875 12.742188 -5.941406 12.628906 -5.566406 C 12.40625 -4.785156 11.765625 -4.394531 10.714844 -4.394531 L 3.4375 -4.394531 C 2.28125 -4.394531 1.707031 -4.953125 1.707031 -6.074219 L 1.707031 -10.449219 L 11.054688 -10.449219 L 11.054688 -6.492188 L 10.050781 -6.492188 L 10.050781 -6.933594 L 2.707031 -6.933594 L 2.707031 -6.179688 C 2.707031 -5.597656 3.019531 -5.304688 3.644531 -5.304688 M 0.195312 -3.066406 L 9.285156 -3.066406 L 9.285156 -4.015625 L 10.339844 -4.015625 L 10.339844 -3.066406 L 13.152344 -3.066406 L 13.152344 -2.140625 L 10.339844 -2.140625 L 10.339844 -0.0195312 C 10.339844 1.011719 9.773438 1.53125 8.644531 1.53125 C 8.21875 1.53125 7.527344 1.527344 6.5625 1.515625 C 6.519531 1.195312 6.453125 0.824219 6.367188 0.398438 C 7.164062 0.457031 7.824219 0.488281 8.347656 0.488281 C 8.972656 0.488281 9.285156 0.21875 9.285156 -0.320312 L 9.285156 -2.140625 L 0.195312 -2.140625 L 0.195312 -3.066406 M 2.707031 -9.550781 L 2.707031 -7.832031 L 10.050781 -7.832031 L 10.050781 -9.550781 L 2.707031 -9.550781 M 2.644531 -1.425781 L 3.28125 -2.101562 C 4.246094 -1.347656 4.964844 -0.753906 5.441406 -0.320312 L 4.6875 0.449219 C 3.890625 -0.316406 3.207031 -0.941406 2.644531 -1.425781 Z "/>
</g>
<g id="glyph-0-1">
<path d="M 8.699219 -11.046875 L 9.738281 -10.890625 C 9.558594 -10.050781 9.34375 -9.265625 9.101562 -8.535156 L 13.085938 -8.535156 L 13.085938 -7.648438 L 12.265625 -7.648438 C 12.046875 -5.097656 11.492188 -3.070312 10.597656 -1.570312 C 11.300781 -0.613281 12.195312 0.167969 13.28125 0.773438 C 13.003906 1.15625 12.769531 1.5 12.578125 1.804688 C 11.519531 1.117188 10.636719 0.300781 9.933594 -0.644531 C 9.136719 0.34375 8.1875 1.203125 7.082031 1.933594 C 6.890625 1.683594 6.644531 1.410156 6.339844 1.113281 C 7.554688 0.316406 8.542969 -0.59375 9.296875 -1.609375 C 8.59375 -2.824219 8.128906 -4.226562 7.902344 -5.8125 C 7.722656 -5.492188 7.53125 -5.191406 7.332031 -4.914062 C 7.15625 -5.167969 6.941406 -5.445312 6.679688 -5.75 C 7.6875 -7.199219 8.359375 -8.964844 8.699219 -11.046875 M 0.3125 -3.535156 L 2.292969 -3.535156 C 2.484375 -3.863281 2.667969 -4.203125 2.851562 -4.550781 L 3.789062 -4.25 C 3.648438 -4.007812 3.511719 -3.769531 3.371094 -3.535156 L 6.5625 -3.535156 L 6.5625 -2.6875 C 6.234375 -1.839844 5.734375 -1.089844 5.066406 -0.449219 C 5.542969 -0.222656 6.027344 0.00390625 6.523438 0.226562 L 5.949219 1.125 C 5.414062 0.824219 4.851562 0.519531 4.269531 0.214844 C 3.289062 0.917969 2.054688 1.472656 0.558594 1.882812 C 0.421875 1.605469 0.273438 1.300781 0.117188 0.96875 C 1.382812 0.683594 2.457031 0.269531 3.332031 -0.265625 C 2.585938 -0.648438 1.804688 -1.039062 0.988281 -1.4375 C 1.265625 -1.839844 1.535156 -2.25 1.796875 -2.675781 L 0.3125 -2.675781 L 0.3125 -3.535156 M 0.457031 -8.015625 L 3.449219 -8.015625 L 3.449219 -10.929688 L 4.414062 -10.929688 L 4.414062 -8.015625 L 6.914062 -8.015625 L 6.914062 -7.15625 L 4.414062 -7.15625 L 4.414062 -6.359375 L 4.804688 -6.804688 C 5.613281 -6.214844 6.289062 -5.691406 6.835938 -5.242188 L 6.210938 -4.511719 C 5.734375 -4.964844 5.132812 -5.472656 4.414062 -6.035156 L 4.414062 -4.550781 L 3.449219 -4.550781 L 3.449219 -6.375 C 2.660156 -5.550781 1.742188 -4.824219 0.691406 -4.199219 C 0.523438 -4.449219 0.339844 -4.714844 0.128906 -4.992188 C 1.222656 -5.582031 2.226562 -6.304688 3.136719 -7.15625 L 0.457031 -7.15625 L 0.457031 -8.015625 M 11.222656 -7.648438 L 8.789062 -7.648438 C 8.746094 -7.535156 8.699219 -7.429688 8.644531 -7.324219 C 8.800781 -5.484375 9.234375 -3.910156 9.949219 -2.597656 C 10.640625 -3.863281 11.066406 -5.550781 11.222656 -7.648438 M 2.265625 -1.738281 C 2.882812 -1.460938 3.515625 -1.167969 4.167969 -0.867188 C 4.765625 -1.378906 5.234375 -1.980469 5.574219 -2.675781 L 2.863281 -2.675781 C 2.664062 -2.355469 2.464844 -2.042969 2.265625 -1.738281 M 6.328125 -10.605469 L 7.136719 -10.070312 C 6.65625 -9.445312 6.179688 -8.871094 5.703125 -8.339844 C 5.503906 -8.511719 5.269531 -8.695312 5 -8.886719 C 5.453125 -9.417969 5.894531 -9.988281 6.328125 -10.605469 M 0.792969 -10.03125 L 1.535156 -10.539062 C 1.925781 -10.0625 2.332031 -9.550781 2.746094 -9.003906 L 1.941406 -8.429688 C 1.558594 -8.996094 1.175781 -9.527344 0.792969 -10.03125 Z "/>
</g>
<g id="glyph-0-2">
<path d="M 0.742188 -8.925781 L 2.058594 -8.925781 C 2.378906 -9.714844 2.644531 -10.4375 2.851562 -11.085938 L 3.945312 -10.773438 C 3.671875 -10.109375 3.40625 -9.496094 3.152344 -8.925781 L 5.753906 -8.925781 L 5.753906 1.4375 L 4.714844 1.4375 L 4.714844 0.421875 L 1.785156 0.421875 L 1.785156 1.53125 L 0.742188 1.53125 L 0.742188 -8.925781 M 5.949219 -6.257812 C 6.765625 -7.550781 7.457031 -9.160156 8.019531 -11.085938 L 9.113281 -10.8125 C 8.894531 -10.160156 8.667969 -9.542969 8.4375 -8.964844 L 12.628906 -8.964844 C 12.527344 -4.503906 12.4375 -1.695312 12.371094 -0.539062 C 12.308594 0.824219 11.59375 1.503906 10.222656 1.503906 C 9.429688 1.503906 8.628906 1.476562 7.8125 1.425781 C 7.761719 0.992188 7.691406 0.605469 7.605469 0.265625 L 7.644531 0.265625 C 8.511719 0.386719 9.304688 0.449219 10.027344 0.449219 C 10.816406 0.449219 11.242188 0.03125 11.300781 -0.800781 C 11.398438 -2.09375 11.46875 -4.488281 11.511719 -7.988281 L 8.019531 -7.988281 C 7.644531 -7.152344 7.253906 -6.414062 6.847656 -5.773438 C 6.613281 -5.941406 6.316406 -6.101562 5.949219 -6.257812 M 1.785156 -0.554688 L 4.714844 -0.554688 L 4.714844 -3.847656 L 1.785156 -3.847656 L 1.785156 -0.554688 M 4.714844 -7.949219 L 1.785156 -7.949219 L 1.785156 -4.785156 L 4.714844 -4.785156 L 4.714844 -7.949219 M 7.097656 -5.371094 L 7.890625 -5.957031 C 8.855469 -4.820312 9.621094 -3.835938 10.195312 -3 L 9.230469 -2.324219 C 8.617188 -3.332031 7.902344 -4.347656 7.097656 -5.371094 Z "/>
</g>
<g id="glyph-0-3">
<path d="M 3.074219 -10.332031 L 9.503906 -10.332031 L 9.503906 -0.683594 C 9.503906 -0.121094 9.753906 0.164062 10.246094 0.164062 L 10.976562 0.164062 C 11.460938 0.164062 11.742188 -0.101562 11.808594 -0.632812 C 11.898438 -1.1875 11.976562 -1.867188 12.042969 -2.675781 C 12.382812 -2.527344 12.761719 -2.390625 13.175781 -2.257812 C 13.0625 -1.398438 12.964844 -0.734375 12.878906 -0.265625 C 12.722656 0.714844 12.148438 1.203125 11.160156 1.203125 L 10.011719 1.203125 C 8.929688 1.203125 8.386719 0.613281 8.386719 -0.566406 L 8.386719 -9.328125 L 4.191406 -9.328125 L 4.191406 -6.035156 C 4.191406 -3.96875 3.980469 -2.46875 3.554688 -1.53125 C 3.085938 -0.460938 2.214844 0.558594 0.9375 1.53125 C 0.730469 1.253906 0.472656 0.933594 0.167969 0.578125 C 1.339844 -0.289062 2.117188 -1.175781 2.5 -2.078125 C 2.882812 -2.882812 3.074219 -4.203125 3.074219 -6.035156 Z "/>
</g>
<g id="glyph-0-4">
<path d="M 4.765625 -7.3125 L 9.179688 -7.3125 L 9.179688 -2.128906 L 5.703125 -2.128906 L 5.703125 -1.464844 L 4.765625 -1.464844 L 4.765625 -7.3125 M 4.402344 -10.097656 L 13.136719 -10.097656 L 13.136719 -9.132812 L 11.992188 -9.132812 L 11.992188 -0.320312 C 11.992188 0.964844 11.402344 1.613281 10.222656 1.621094 C 9.8125 1.628906 9.125 1.625 8.152344 1.609375 C 8.097656 1.285156 8.03125 0.914062 7.941406 0.488281 C 8.679688 0.558594 9.363281 0.59375 9.988281 0.59375 C 10.648438 0.609375 10.976562 0.25 10.976562 -0.488281 L 10.976562 -9.132812 L 4.402344 -9.132812 L 4.402344 -10.097656 M 0.117188 -4.707031 C 1.382812 -6.609375 2.335938 -8.722656 2.96875 -11.046875 L 4.011719 -10.734375 C 3.679688 -9.730469 3.332031 -8.785156 2.96875 -7.910156 L 2.96875 1.75 L 1.964844 1.75 L 1.964844 -5.800781 C 1.53125 -4.992188 1.070312 -4.253906 0.585938 -3.585938 C 0.457031 -3.960938 0.300781 -4.332031 0.117188 -4.707031 M 8.242188 -6.386719 L 5.703125 -6.386719 L 5.703125 -3.054688 L 8.242188 -3.054688 Z "/>
</g>
<g id="glyph-0-5">
<path d="M 5.636719 -1.582031 L 6.296875 -2.140625 L 2.957031 -2.140625 L 2.957031 -1.738281 L 1.992188 -1.738281 L 1.992188 -6.242188 L 11.261719 -6.242188 L 11.261719 -1.738281 L 10.300781 -1.738281 L 10.300781 -2.140625 L 6.328125 -2.140625 C 6.898438 -1.660156 7.394531 -1.191406 7.824219 -0.734375 L 7.058594 -0.0976562 C 6.691406 -0.523438 6.21875 -1.019531 5.636719 -1.582031 M 0.3125 -7.753906 L 3.972656 -7.753906 C 3.628906 -8.078125 3.28125 -8.390625 2.929688 -8.691406 L 3.320312 -9.054688 L 1.121094 -9.054688 L 1.121094 -9.835938 L 6.308594 -9.835938 C 6.128906 -10.203125 5.945312 -10.542969 5.753906 -10.867188 L 6.640625 -11.242188 C 6.921875 -10.753906 7.164062 -10.285156 7.371094 -9.835938 L 12.214844 -9.835938 L 12.214844 -9.054688 L 9.941406 -9.054688 L 10.390625 -8.71875 C 10.042969 -8.394531 9.683594 -8.074219 9.316406 -7.753906 L 13.019531 -7.753906 L 13.019531 -6.972656 L 0.3125 -6.972656 L 0.3125 -7.753906 M 3.4375 -1.648438 L 4.425781 -1.648438 L 4.425781 -0.164062 C 4.425781 0.339844 4.714844 0.59375 5.285156 0.59375 L 7.957031 0.59375 C 8.582031 0.59375 8.949219 0.355469 9.0625 -0.125 C 9.148438 -0.453125 9.226562 -0.84375 9.296875 -1.296875 C 9.601562 -1.164062 9.925781 -1.042969 10.273438 -0.929688 C 10.167969 -0.4375 10.074219 -0.0351562 9.988281 0.265625 C 9.777344 1.074219 9.191406 1.476562 8.230469 1.476562 L 5.078125 1.476562 C 3.984375 1.476562 3.4375 0.960938 3.4375 -0.0703125 L 3.4375 -1.648438 M 2.957031 -2.898438 L 10.300781 -2.898438 L 10.300781 -3.835938 L 2.957031 -3.835938 L 2.957031 -2.898438 M 10.300781 -5.488281 L 2.957031 -5.488281 L 2.957031 -4.5625 L 10.300781 -4.5625 L 10.300781 -5.488281 M 8.175781 -7.988281 C 8.527344 -8.285156 8.914062 -8.640625 9.335938 -9.054688 L 3.828125 -9.054688 C 4.214844 -8.769531 4.59375 -8.464844 4.960938 -8.144531 L 4.5625 -7.753906 L 8.410156 -7.753906 L 8.175781 -7.988281 M 1.367188 -1.582031 L 2.277344 -1.230469 C 1.964844 -0.441406 1.601562 0.359375 1.183594 1.164062 C 0.925781 1.042969 0.621094 0.910156 0.273438 0.761719 C 0.628906 0.121094 0.992188 -0.660156 1.367188 -1.582031 M 10.78125 -1.046875 L 11.523438 -1.621094 C 12.140625 -0.960938 12.691406 -0.339844 13.175781 0.242188 L 12.355469 0.890625 C 11.828125 0.199219 11.300781 -0.449219 10.78125 -1.046875 Z "/>
</g>
<g id="glyph-0-6">
<path d="M 10.144531 -10.1875 L 11.261719 -9.980469 C 10.6875 -6.652344 9.433594 -3.996094 7.507812 -2.011719 C 8.839844 -0.960938 10.730469 -0.152344 13.175781 0.410156 C 12.804688 0.851562 12.5 1.230469 12.265625 1.542969 C 9.800781 0.738281 7.9375 -0.1875 6.671875 -1.238281 C 5.382812 -0.183594 3.46875 0.796875 0.925781 1.699219 C 0.734375 1.378906 0.496094 1.039062 0.207031 0.683594 C 2.761719 -0.0703125 4.652344 -0.960938 5.886719 -1.980469 C 4.117188 -3.773438 2.820312 -6.378906 1.992188 -9.796875 L 3.007812 -10.1875 C 3.753906 -6.972656 4.984375 -4.488281 6.691406 -2.742188 C 8.601562 -4.734375 9.753906 -7.214844 10.144531 -10.1875 M 5.207031 -10.683594 L 6.160156 -11.140625 C 6.820312 -10.027344 7.371094 -8.996094 7.8125 -8.039062 L 6.796875 -7.492188 C 6.265625 -8.664062 5.738281 -9.730469 5.207031 -10.683594 Z "/>
</g>
</g>
</defs>
<g fill="rgb(100%, 100%, 100%)" fill-opacity="1">
<use xlink:href="#glyph-0-0" x="30" y="34.107422"/>
<use xlink:href="#glyph-0-1" x="43" y="34.107422"/>
<use xlink:href="#glyph-0-2" x="56" y="34.107422"/>
<use xlink:href="#glyph-0-3" x="69" y="34.107422"/>
<use xlink:href="#glyph-0-4" x="82" y="34.107422"/>
<use xlink:href="#glyph-0-5" x="95" y="34.107422"/>
<use xlink:href="#glyph-0-6" x="108" y="34.107422"/>
</g>
</svg>
